<svg width="24" height="25" viewBox="0 0 24 25" fill="none" xmlns="http://www.w3.org/2000/svg">
<path d="M12.9008 12.1174L5.5591 19.6425L2.00485 16.0017L0 18.0566L5.51334 23.7077L5.51552 23.7055L5.5177 23.7077L14.8642 14.1277L12.9008 12.1174Z" fill="#2DCD8B"/>
<path d="M4.29268 13.6586L5.55879 14.9564L7.2956 13.1762C7.26945 12.8031 7.24765 12.4257 7.24765 12.0281C7.24765 10.1451 7.54402 8.55032 8.13676 7.24811C8.7295 5.94368 9.54234 4.95641 10.5818 4.27963C11.6169 3.60507 12.7893 3.26779 14.099 3.26779C14.8138 3.26779 15.4937 3.36831 16.1344 3.56487C16.7794 3.76366 17.3613 4.06297 17.8821 4.46055C18.4029 4.85814 18.8453 5.34283 19.207 5.91241C19.5688 6.48198 19.8216 7.1409 19.9654 7.88247H23.4739C23.2799 6.64727 22.9095 5.54386 22.3625 4.57C21.8155 3.59614 21.1269 2.7697 20.2944 2.08844C19.4598 1.40718 18.5162 0.888983 17.4593 0.533836C16.4024 0.17869 15.2714 0 14.0663 0C12.0963 0 10.3334 0.482463 8.7818 1.44516C7.22804 2.40785 6.00988 3.78823 5.12077 5.58406C4.23166 7.3799 3.78711 9.52865 3.78711 12.0303C3.78711 12.4346 3.81762 12.8143 3.84159 13.1985L4.29268 13.6609V13.6586Z" fill="white"/>
<path d="M19.9633 16.1401C19.8195 16.8728 19.5667 17.5272 19.205 18.1035C18.841 18.6798 18.3987 19.1645 17.8713 19.5554C17.3439 19.9485 16.7621 20.2455 16.1258 20.451C15.4873 20.6543 14.8096 20.757 14.097 20.757C13.7374 20.757 13.3887 20.7258 13.0509 20.6744L10.4229 23.3682C11.5473 23.7903 12.7568 24.0226 14.0664 24.0226C15.3761 24.0226 16.4853 23.8327 17.551 23.4508C18.6188 23.0688 19.5645 22.5216 20.3926 21.8091C21.2207 21.0966 21.8984 20.2634 22.4302 19.3052C22.9619 18.347 23.3127 17.2927 23.4871 16.1401H19.9633Z" fill="white"/>
</svg>
